IKResults
version=1
nRows=8
nColumns=40
inDegrees=yes

Units are S.I. units (second, meters, Newtons, ...)
Angles are in degrees.

endheader
time	pelvis_tilt	pelvis_list	pelvis_rotation	pelvis_tx	pelvis_ty	pelvis_tz	hip_flexion_r	hip_adduction_r	hip_rotation_r	knee_angle_r	knee_angle_r_beta	ankle_angle_r	subtalar_angle_r	mtp_angle_r	hip_flexion_l	hip_adduction_l	hip_rotation_l	knee_angle_l	knee_angle_l_beta	ankle_angle_l	subtalar_angle_l	mtp_angle_l	lumbar_extension	lumbar_bending	lumbar_rotation	arm_flex_r	arm_add_r	arm_rot_r	elbow_flex_r	pro_sup_r	wrist_flex_r	wrist_dev_r	arm_flex_l	arm_add_l	arm_rot_l	elbow_flex_l	pro_sup_l	wrist_flex_l	wrist_dev_l
      0.85000000	     17.34208774	     -7.01853787	      7.08893852	      0.42372357	      0.92024686	      0.98147566	      6.43776569	      6.62347207	    -20.66106706	    -27.63110397	     -0.48225374	      0.41696782	     -7.11042461	      2.45594099	    -24.93250635	     10.79928906	      1.13208849	    -48.76959098	     -0.85118994	    -13.55329241	     15.57603323	     -0.75123384	    -20.36329990	      8.78525619	     -4.99384016	    -14.71322559	    -10.97727037	      0.71411664	     15.46881985	     89.95437384	      0.00000000	      0.00000000	      7.73872042	      9.56649878	      9.58178626	     54.71096210	     89.95437384	      0.00000000	      0.00000000
      0.86000000	     17.54823779	     -6.97826178	      7.00998427	      0.43722305	      0.92307573	      0.98290823	      5.04728829	      6.89694390	    -20.50728749	    -27.28525514	     -0.47621754	      1.16753950	     -6.85436385	      2.48699735	    -23.57293777	     10.65008580	      0.48269922	    -51.14680537	     -0.89268016	    -13.61240823	     16.33024336	     -0.49688801	    -20.72677958	      8.68997645	     -4.49926740	    -14.13760920	    -11.03065768	      0.82205142	     15.89160768	     89.95437384	      0.00000000	      0.00000000	      7.52720497	      9.40494788	      9.44473004	     53.43933067	     89.95437384	      0.00000000	      0.00000000
      0.87000000	     17.71118393	     -6.75668925	      6.96658051	      0.45058064	      0.92591413	      0.98391584	      3.70236499	      6.89673909	    -20.51586315	    -26.97888043	     -0.47087029	      1.85483816	     -6.46479235	      2.51184323	    -22.21787534	     10.21971492	     -0.26275981	    -53.30826214	     -0.93040469	    -11.36712548	     16.54869585	     -0.36434230	    -21.03809917	      8.42808980	     -4.13829932	    -13.55508360	    -11.12664743	      0.99547525	     16.45883994	     89.95437384	      0.00000000	      0.00000000	      7.24769978	      9.25490305	      9.27336023	     52.11574653	     89.95437384	      0.00000000	      0.00000000
      0.88000000	     17.97997464	     -6.36646036	      6.95788158	      0.46383798	      0.92898761	      0.98497079	      2.20601479	      6.76336936	    -20.38423868	    -26.63360317	     -0.46484407	      2.54412480	     -6.13393267	      2.49531862	    -20.93957559	      9.63334075	     -0.99805779	    -55.17493356	     -0.96298426	     -8.83842547	     16.60805889	     -0.34704017	    -21.43824380	      7.96914546	     -3.86874174	    -12.91375600	    -11.18101894	      1.24933401	     16.99822975	     89.95437384	      0.00000000	      0.00000000	      6.99093257	      9.18775184	      9.04552346	     50.62330909	     89.95437384	      0.00000000	      0.00000000
      0.89000000	     18.21366946	     -5.97572298	      6.98360136	      0.47707795	      0.93201698	      0.98602638	      0.69209539	      6.62134958	    -20.38535671	    -26.14457218	     -0.45630887	      3.17274671	     -5.77585276	      2.51711639	    -19.62413721	      9.02470281	     -1.74072577	    -56.73437089	     -0.99020157	     -6.32949347	     16.81053693	     -0.23895476	    -21.79337941	      7.48710897	     -3.54917120	    -12.37424813	    -11.22352195	      1.53453317	     17.72351125	     89.95437384	      0.00000000	      0.00000000	      6.68479375	      9.11948355	      8.75176485	     49.20668305	     89.95437384	      0.00000000	      0.00000000
      0.90000000	     18.40695541	     -5.55760693	      6.97390431	      0.49024434	      0.93493710	      0.98716740	     -0.77911401	      6.45729251	    -20.28995062	    -25.58080655	     -0.44646930	      3.78332753	     -5.43434583	      2.53576215	    -18.27860297	      8.41692447	     -2.29760110	    -57.95744913	     -1.01154831	     -4.50569526	     17.16405905	      0.02812904	    -22.07627810	      6.94642011	     -3.29600890	    -11.85495163	    -11.29356845	      1.72569200	     18.69980534	     89.95437384	      0.00000000	      0.00000000	      6.31374387	      9.08690352	      8.56376223	     47.68675325	     89.95437384	      0.00000000	      0.00000000
      0.91000000	     18.54488204	     -5.13174943	      6.69429140	      0.50319898	      0.93764036	      0.98881363	     -2.05021949	      6.20415896	    -20.22280355	    -25.28391620	     -0.44128759	      4.12213472	     -5.30974771	      2.50057791	    -16.83645572	      7.93349097	     -2.14959377	    -58.96096636	     -1.02906299	     -3.65840234	     17.27189830	      0.09761860	    -22.34246856	      6.27859736	     -2.92626007	    -11.17164271	    -11.32767181	      1.77289983	     19.52435804	     89.95437384	      0.00000000	      0.00000000	      5.76640400	      9.10635913	      8.49463667	     46.38205483	     89.95437384	      0.00000000	      0.00000000
      0.92000000	     18.53613416	     -4.80796326	      6.61335295	      0.51612679	      0.94015639	      0.98991785	     -3.37377762	      6.22660922	    -19.65429559	    -24.47709769	     -0.42720595	      4.72544582	     -5.09127402	      2.48159858	    -15.39496925	      7.19954006	     -2.83731538	    -59.56644644	     -1.03963061	     -1.74542402	     17.95350489	      0.42004212	    -22.33529895	      5.82353394	     -2.50587109	    -10.86926870	    -11.45562990	      1.77733205	     20.82750428	     89.95437384	      0.00000000	      0.00000000	      5.58753424	      8.96421865	      8.28151581	     44.26833629	     89.95437384	      0.00000000	      0.00000000
